<svg width="107" height="123" viewBox="0 0 107 123" fill="none" xmlns="http://www.w3.org/2000/svg">
<path d="M48.0184 61.982C42.0661 61.982 36.7323 61.4067 32.0054 60.3679L31.4745 78.7559C48.1867 79.3688 50.6421 102.595 32.0054 103.973V121.84L92.175 121.294C99.2897 121.229 105.023 115.443 105.023 108.328C105.023 101.167 99.2182 95.362 92.0572 95.362H77.1483H53.8582V62.3563C52.0227 62.1109 50.0767 61.982 48.0184 61.982Z" fill="#064E3B"/>
<path d="M49.3994 37.4804C48.5692 37.4992 47.7376 37.4204 46.9251 37.2488C39.271 35.6324 34.5604 33.0327 32.1381 30.1946L32.0054 60.3679C36.7323 61.4067 42.0661 61.982 48.0184 61.982C50.0767 61.982 52.0227 62.1109 53.8582 62.3563L53.991 37.1698C52.5302 37.3386 50.9996 37.4443 49.3994 37.4804Z" fill="#064E3B"/>
<path d="M32.1381 30.1946C34.5604 33.0327 39.271 35.6324 46.9251 37.2488C47.7376 37.4204 48.5692 37.4992 49.3994 37.4804C50.9996 37.4443 52.5302 37.3386 53.991 37.1698C85.22 33.56 84.5033 1.06178 48.1511 1.06177C-3.31413 1.06177 -11.9099 50.7171 32.0054 60.3679L32.1381 30.1946Z" fill="#064E3B"/>
<path d="M53.8582 62.3563V95.362H77.1483C80.5978 81.1731 73.6377 65.0007 53.8582 62.3563Z" fill="#064E3B"/>
<path d="M15.1693 79.0369C-6.59741 79.9632 -1.35483 121.044 18.4874 121.641L32.0054 121.84V103.973L31.4745 78.7559C29.9952 78.082 17.8688 78.9221 15.1693 79.0369Z" fill="#064E3B"/>
<path d="M48.1512 0C66.5576 5.53849e-06 76.574 8.27416 77.4711 17.6611C78.1023 24.2655 74.1655 30.8374 66.244 34.7976C60.2274 37.8056 55.0216 43.1052 54.9861 49.8318C54.9509 56.5068 60.0551 61.8403 65.8661 65.1251C69.8745 67.3909 72.9487 70.446 75.1187 73.9736C76.1617 75.6694 76.9918 77.4676 77.6157 79.3312C80.1077 86.7743 85.7815 94.3002 93.6307 94.3002C100.509 94.3002 106.085 99.8762 106.085 106.755V108.328C106.085 116.026 99.8821 122.285 92.1848 122.355L48.0812 122.756C47.8961 122.76 47.7102 122.762 47.5237 122.762C47.5234 122.762 47.5231 122.762 47.5231 122.762C47.5231 122.761 47.5229 122.761 47.5225 122.761L32.0152 122.902L32.0025 122.902L31.9899 122.902L18.4719 122.703L18.4638 122.703L18.4556 122.703C13.0915 122.541 8.76792 119.635 5.68561 115.497C2.61117 111.369 0.720065 105.959 0.168891 100.57C-0.381623 95.1888 0.393577 89.7118 2.7907 85.4776C5.21532 81.1949 9.28645 78.2245 15.1243 77.9761C16.3694 77.9231 20.2495 77.6772 23.7377 77.5397C25.52 77.4694 27.2797 77.4232 28.6933 77.4377C29.6492 77.4475 30.4717 76.7032 30.4993 75.7477L30.7133 68.332C30.833 64.1861 27.9816 60.614 24.1045 59.1407C16.8867 56.398 11.4969 52.3842 7.91858 47.6721C3.16437 41.4113 1.65893 33.9788 3.2752 26.8607C6.5135 12.5993 22.1051 9.87919e-06 48.1512 0ZM32.771 70.6436C32.6555 74.6471 35.8643 77.8414 39.2935 79.9109C43.4293 82.4068 45.7882 86.6734 46.0557 91.0123C46.2581 94.2969 45.2621 97.6345 42.9265 100.246C42.1201 101.147 41.1628 101.953 40.0546 102.636C36.4551 104.855 33.0673 108.124 33.0673 112.352C33.0673 116.988 36.8477 120.734 41.4835 120.692L48.063 120.633C55.4917 120.462 61.8006 116.787 66.6212 111.8C67.3363 111.06 68.0168 110.293 68.6618 109.507C73.4002 103.729 68.255 96.4238 60.7825 96.4238H50.673C50.0866 96.4238 49.6112 95.9484 49.6112 95.362C49.6112 94.7756 50.0866 94.3002 50.673 94.3002H51.2039C52.0835 94.3002 52.7966 93.5871 52.7966 92.7075V68.0842C52.7966 65.3598 50.7428 63.0438 48.0185 63.0438C45.9142 63.0438 43.8844 62.9726 41.9287 62.8349C37.242 62.505 32.9066 65.9472 32.771 70.6436ZM28.6716 79.5611C27.3111 79.5472 25.5931 79.5917 23.8215 79.6616C20.2019 79.8043 16.6691 80.036 15.2146 80.0979C10.1691 80.3126 6.73294 82.8247 4.63873 86.5238C2.51706 90.2714 1.7619 95.2755 2.28145 100.354C2.80036 105.427 4.57978 110.457 7.38872 114.228C10.1885 117.988 13.959 120.441 18.5132 120.58L23.9772 120.66C27.808 120.717 30.9437 117.627 30.9437 113.796V106.627C30.9437 105.999 30.3679 105.525 29.7445 105.599C28.6756 105.725 27.4448 105.786 26.2242 105.812C23.8092 105.864 21.2612 105.781 20.0802 105.781C17.7586 105.781 16.0315 105.174 14.9592 104.038C13.8706 102.884 13.6385 101.379 13.9123 99.9997C14.1836 98.633 14.9575 97.3103 16.0164 96.3262C16.8366 95.5639 17.8684 94.9688 19.0252 94.7371C19.6002 94.622 20.0802 95.1074 20.0802 95.6938C20.0802 96.2802 19.5939 96.7439 19.0368 96.927C18.4723 97.1126 17.9354 97.442 17.4621 97.8818C16.7002 98.5899 16.1718 99.5235 15.9952 100.413C15.821 101.29 15.9954 102.041 16.5036 102.58C17.0281 103.136 18.0882 103.657 20.0802 103.657C21.3901 103.657 23.7707 103.74 26.1786 103.689C27.3694 103.663 28.5236 103.605 29.4954 103.49C30.3429 103.39 30.9153 102.637 30.8974 101.784L30.4323 79.6961C30.4315 79.6605 30.4042 79.6307 30.3687 79.6276C29.9287 79.5896 29.3532 79.5681 28.6716 79.5611ZM89.2124 96.4238C82.5719 96.4238 76.8967 101.016 73.3494 106.63C71.8839 108.949 70.1421 111.213 68.1481 113.276C66.192 115.299 67.7364 120.454 70.5507 120.428L96.1788 120.195C100.489 120.156 103.962 116.651 103.962 112.341V108.328C103.962 101.753 98.6319 96.4238 92.0574 96.4238H89.2124ZM32.845 93.4013C32.9507 98.4204 37.9968 102.572 41.3437 98.8299C43.267 96.6796 44.1069 93.9138 43.9361 91.143C43.8177 89.2225 43.2137 87.305 42.1498 85.6079C38.891 80.4098 32.6749 85.3221 32.804 91.4559L32.845 93.4013ZM54.9201 82.4833C54.9201 89.0096 60.2108 94.3002 66.7371 94.3002C72.3142 94.3002 77.4304 90.3197 76.7013 84.7904C76.2482 81.3547 75.1276 78.0413 73.3099 75.0862C72.3233 73.4822 71.1269 71.9767 69.7122 70.6096C63.4534 64.5616 54.9201 71.5129 54.9201 80.2164V82.4833ZM33.1043 51.9316C33.085 56.3375 36.1774 60.1993 40.5655 60.5953C42.9275 60.8085 45.4114 60.9202 48.0185 60.9202C50.5854 60.9202 52.8145 58.9363 52.828 56.3695L52.8978 43.1244C52.9113 40.5626 50.713 38.5562 48.1512 38.5562C48.0849 38.5562 48.0185 38.55 47.9533 38.5376C41.6077 37.3333 33.1469 42.2539 33.1185 48.7127L33.1043 51.9316ZM47.8539 2.1241C22.6196 2.21908 8.28172 14.4028 5.34615 27.331C3.86977 33.833 5.23287 40.6238 9.60977 46.3877C10.2045 47.1709 10.8557 47.9361 11.5642 48.6799C19.3999 56.9059 30.9976 48.1195 31.0475 36.759C31.0651 32.7556 28.8799 28.8702 29.05 24.8704C29.0558 24.7329 29.0654 24.5955 29.0788 24.4584C29.2891 22.3039 30.4146 20.3357 32.1435 18.7667C34.6265 16.5133 38.4024 15.0237 42.869 14.8525C46.4658 14.7146 50.4787 14.6269 53.3368 16.8149C53.6719 17.0715 53.9761 17.3562 54.249 17.6664C55.5524 19.1478 56.0303 21.0836 55.8789 22.9476C55.5808 26.6183 52.7574 30.4601 48.1512 30.4601C44.2709 30.4601 41.9577 29.2158 40.7499 27.3023C39.8522 25.8801 39.6766 24.2495 39.719 22.9081C39.7375 22.322 40.2686 21.9015 40.8515 21.9658C41.4344 22.0301 41.8464 22.555 41.8381 23.1413C41.8232 24.196 41.9862 25.2823 42.5457 26.1687C43.2403 27.2692 44.7319 28.3365 48.1512 28.3365C51.3757 28.3365 53.5295 25.6417 53.7623 22.7757C53.8764 21.3714 53.5081 20.0389 52.6548 19.0691C51.8158 18.1155 50.3969 17.3868 48.1512 17.3868C48.0845 17.3868 48.0179 17.3805 47.9524 17.368C41.6382 16.1642 36.4212 17.7522 33.5706 20.3393C32.1505 21.628 31.3417 23.1354 31.1924 24.6647C31.0445 26.1794 31.5302 27.8468 32.9458 29.5054C34.6879 31.5464 37.8279 33.5509 42.7856 35.0883C46.3625 36.1974 50.149 36.545 53.8691 36.115C69.1877 34.3443 76.0984 25.6197 75.3571 17.8631C74.6151 10.0985 66.097 2.12358 48.1512 2.12358L47.8539 2.1241Z" fill="white"/>
</svg>
