<svg width="800" height="926" viewBox="0 0 800 926" fill="none" xmlns="http://www.w3.org/2000/svg">
<path d="M361.793 467C316.946 467 276.759 462.665 241.144 454.839L237.144 593.383C363.061 598 381.561 773 241.144 783.378V918L694.489 913.88C748.094 913.393 791.293 869.799 791.293 816.192C791.293 762.238 747.555 718.5 693.601 718.5H581.271H405.793V469.82C391.963 467.971 377.301 467 361.793 467Z" fill="#064E3B"/>
<path d="M372.198 282.394C365.943 282.536 359.677 281.942 353.556 280.65C295.887 268.471 260.395 248.883 242.144 227.5L241.144 454.839C276.759 462.665 316.946 467 361.793 467C377.301 467 391.963 467.971 405.793 469.82L406.793 280.054C395.787 281.326 384.255 282.122 372.198 282.394Z" fill="#064E3B"/>
<path d="M242.144 227.5C260.395 248.883 295.887 268.471 353.556 280.65C359.677 281.942 365.943 282.536 372.198 282.394C384.255 282.122 395.787 281.326 406.793 280.054C642.087 252.856 636.687 8.00008 362.793 8C-24.9691 7.99999 -89.7337 382.126 241.144 454.839L242.144 227.5Z" fill="#064E3B"/>
<path d="M405.793 469.82V718.5H581.271C607.261 611.595 554.821 489.744 405.793 469.82Z" fill="#064E3B"/>
<path d="M114.293 595.5C-49.7068 602.479 -10.2068 912 139.293 916.5L241.144 918V783.378L237.144 593.383C225.998 588.305 134.633 594.634 114.293 595.5Z" fill="#064E3B"/>
<path d="M362.793 0C501.475 4.17295e-05 576.943 62.3412 583.702 133.066C588.458 182.827 558.796 232.343 499.112 262.181C453.78 284.844 414.557 324.774 414.29 375.455C414.025 425.747 452.482 465.933 496.265 490.682C526.466 507.753 549.628 530.772 565.978 557.351C573.836 570.127 580.091 583.676 584.791 597.717C603.567 653.797 646.316 710.5 705.456 710.5C757.281 710.5 799.293 752.512 799.293 804.337V816.192C799.293 874.189 752.556 921.352 694.562 921.88L362.266 924.899C360.871 924.93 359.47 924.946 358.065 924.946C358.063 924.946 358.061 924.944 358.061 924.942C358.061 924.939 358.059 924.938 358.056 924.938L241.217 926L241.121 926.001L241.026 925.999L139.176 924.499L139.114 924.498L139.053 924.496C98.6372 923.28 66.0614 901.387 42.8379 870.205C19.6737 839.103 5.42529 798.339 1.2725 757.743C-2.87532 717.195 2.96539 675.929 21.0264 644.026C39.2945 611.758 69.9683 589.379 113.953 587.507C123.334 587.108 152.569 585.255 178.851 584.219C192.279 583.689 205.537 583.341 216.189 583.45C223.39 583.524 229.587 577.916 229.795 570.717L231.408 514.844C232.31 483.607 210.826 456.693 181.614 445.593C127.232 424.928 86.6226 394.686 59.6622 359.183C23.8418 312.012 12.4991 256.012 24.6768 202.381C49.0756 94.9287 166.549 7.44343e-05 362.793 0ZM246.912 532.26C246.041 562.425 270.218 586.492 296.055 602.085C327.215 620.89 344.989 653.036 347.004 685.728C348.529 710.475 341.025 735.622 323.428 755.296C317.352 762.089 310.139 768.156 301.789 773.304C274.669 790.023 249.144 814.652 249.144 846.512C249.144 881.441 277.627 909.667 312.555 909.35L362.128 908.899C418.099 907.615 465.633 879.925 501.954 842.351C507.342 836.777 512.469 830.999 517.329 825.074C553.03 781.539 514.264 726.5 457.962 726.5H381.793C377.375 726.5 373.793 722.918 373.793 718.5C373.793 714.082 377.375 710.5 381.793 710.5H385.793C392.42 710.5 397.793 705.127 397.793 698.5V512.977C397.793 492.45 382.319 475 361.793 475C345.938 475 330.645 474.464 315.91 473.426C280.598 470.94 247.933 496.876 246.912 532.26ZM216.024 599.449C205.774 599.344 192.83 599.68 179.481 600.206C152.21 601.281 125.592 603.027 114.634 603.493C76.6187 605.111 50.729 624.038 34.9502 651.909C18.9647 680.145 13.275 717.848 17.1895 756.115C21.0992 794.335 34.5061 832.232 55.67 860.648C76.7649 888.972 105.173 907.453 139.486 908.502L180.655 909.108C209.518 909.533 233.144 886.253 233.144 857.387V803.373C233.144 798.643 228.805 795.073 224.108 795.628C216.055 796.579 206.782 797.036 197.585 797.233C179.389 797.624 160.191 797 151.293 797C133.801 797 120.788 792.427 112.709 783.865C104.508 775.174 102.758 763.834 104.821 753.442C106.866 743.145 112.697 733.18 120.675 725.765C126.854 720.022 134.628 715.538 143.345 713.792C147.677 712.924 151.293 716.582 151.293 721C151.293 725.418 147.629 728.912 143.432 730.292C139.178 731.69 135.133 734.171 131.567 737.485C125.827 742.82 121.845 749.855 120.515 756.558C119.203 763.166 120.516 768.826 124.346 772.885C128.298 777.073 136.285 781 151.293 781C161.163 781 179.099 781.626 197.241 781.236C206.213 781.044 214.91 780.603 222.231 779.738C228.617 778.984 232.93 773.311 232.795 766.883L229.29 600.466C229.285 600.198 229.079 599.973 228.812 599.95C225.496 599.664 221.16 599.502 216.024 599.449ZM672.166 726.5C622.134 726.5 579.374 761.1 552.648 803.395C541.605 820.869 528.482 837.928 513.458 853.471C498.72 868.717 510.356 907.552 531.56 907.359L724.654 905.604C757.125 905.309 783.293 878.903 783.293 846.43V816.191C783.293 766.656 743.137 726.5 693.602 726.5H672.166ZM247.469 703.727C248.265 741.544 286.285 772.822 311.502 744.629C325.993 728.427 332.321 707.589 331.034 686.712C330.142 672.242 325.592 657.795 317.575 645.008C293.022 605.843 246.187 642.855 247.16 689.07L247.469 703.727ZM413.793 621.466C413.793 670.638 453.655 710.5 502.827 710.5C544.848 710.5 583.395 680.509 577.902 638.849C574.488 612.963 566.045 587.998 552.35 565.733C544.916 553.648 535.902 542.304 525.243 532.005C478.086 486.436 413.793 538.81 413.793 604.387V621.466ZM249.423 391.276C249.277 424.472 272.577 453.568 305.638 456.552C323.435 458.158 342.15 459 361.793 459C381.133 459 397.928 444.052 398.03 424.713L398.556 324.918C398.657 305.617 382.095 290.5 362.793 290.5C362.293 290.5 361.793 290.453 361.302 290.359C313.491 281.286 249.743 318.36 249.529 367.023L249.423 391.276ZM360.553 16.0039C170.426 16.7195 62.3982 108.517 40.2803 205.924C29.1566 254.913 39.4268 306.078 72.4043 349.506C76.885 355.406 81.792 361.172 87.1301 366.777C146.167 428.755 233.55 362.554 233.926 276.959C234.059 246.796 217.594 217.521 218.875 187.385C218.919 186.349 218.992 185.314 219.093 184.28C220.678 168.048 229.157 153.218 242.184 141.396C260.892 124.419 289.341 113.195 322.994 111.905C350.094 110.866 380.329 110.205 401.863 126.691C404.388 128.624 406.68 130.77 408.736 133.106C418.557 144.268 422.157 158.854 421.017 172.897C418.77 200.554 397.498 229.5 362.793 229.5C333.557 229.5 316.128 220.125 307.028 205.708C300.265 194.992 298.941 182.707 299.261 172.6C299.4 168.184 303.401 165.016 307.793 165.5C312.185 165.984 315.29 169.939 315.227 174.357C315.115 182.303 316.343 190.488 320.559 197.167C325.792 205.458 337.03 213.5 362.793 213.5C387.088 213.5 403.316 193.196 405.069 171.603C405.929 161.021 403.154 150.982 396.725 143.675C390.403 136.49 379.713 131 362.793 131C362.29 131 361.789 130.953 361.295 130.858C313.721 121.789 274.414 133.753 252.936 153.245C242.236 162.955 236.142 174.312 235.018 185.835C233.904 197.248 237.563 209.81 248.229 222.307C261.354 237.685 285.012 252.788 322.366 264.371C349.316 272.728 377.845 275.346 405.874 272.106C521.291 258.765 573.36 193.03 567.774 134.589C562.184 76.0867 498.005 16 362.793 16L360.553 16.0039Z" fill="white"/>
</svg>
